<?xml version="1.0" standalone="no"?>
<!DOCTYPE svg PUBLIC "-//W3C//DTD SVG 20010904//EN"
 "http://www.w3.org/TR/2001/REC-SVG-20010904/DTD/svg10.dtd">
<svg version="1.0" xmlns="http://www.w3.org/2000/svg"
 width="700.000000pt" height="700.000000pt" viewBox="0 0 700.000000 700.000000"
 preserveAspectRatio="xMidYMid meet">
<metadata>
Created by potrace 1.11, written by Peter Selinger 2001-2013
</metadata>
<g transform="translate(0.000000,700.000000) scale(0.100000,-0.100000)"
fill="#000000" stroke="none">
<path d="M3278 6995 c-2 -1 -41 -5 -88 -9 -87 -7 -105 -9 -225 -27 -116 -18
-123 -19 -192 -35 -184 -42 -248 -59 -369 -99 -264 -88 -538 -216 -759 -356
-346 -217 -655 -497 -910 -824 -238 -304 -432 -668 -559 -1047 -31 -94 -79
-267 -91 -329 -3 -13 -11 -58 -20 -99 -29 -147 -36 -200 -52 -370 -15 -165 -8
-592 12 -711 2 -13 6 -46 9 -74 9 -78 23 -156 51 -285 70 -325 244 -759 410
-1023 30 -49 55 -90 55 -93 0 -3 4 -10 10 -17 5 -7 46 -64 91 -126 72 -103
179 -239 234 -297 227 -243 426 -418 637 -561 54 -36 98 -69 98 -73 0 -7 -140
-258 -178 -320 -20 -32 19 3 170 153 l110 109 56 -30 c288 -153 480 -234 730
-308 155 -46 355 -90 497 -109 22 -2 56 -7 75 -10 186 -26 698 -27 838 0 16 3
104 15 147 20 324 41 870 235 1167 415 37 22 70 40 73 40 3 0 11 5 18 10 7 6
62 43 122 83 253 168 492 376 678 592 33 39 63 72 67 75 17 13 181 236 245
335 219 336 406 779 481 1140 16 79 54 301 59 350 4 33 9 71 11 85 9 47 11
525 4 605 -13 130 -21 202 -25 227 -3 13 -8 43 -11 68 -9 67 -70 335 -94 412
-11 37 -21 70 -21 73 0 2 -16 49 -35 102 -222 615 -578 1125 -1074 1541 -66
55 -304 229 -351 257 -116 68 -288 165 -292 165 -2 0 -25 11 -50 26 l-46 25
35 70 c20 39 34 72 32 74 -2 2 -26 -18 -53 -46 -69 -68 -77 -72 -117 -55 -18
8 -53 23 -78 34 -122 53 -401 138 -568 173 -54 11 -106 22 -117 25 -11 2 -38
6 -60 9 -22 3 -51 7 -65 10 -13 2 -52 7 -86 11 -33 3 -74 8 -90 10 -32 5 -540
14 -546 9z"/>
</g>
</svg>
